<svg width="300" height="300" viewBox="0 0 300 300" fill="none" xmlns="http://www.w3.org/2000/svg">
  <rect width="300" height="300" fill="#F5F5F5"/>
  <path d="M150 130C144.477 130 140 134.477 140 140C140 145.523 144.477 150 150 150C155.523 150 160 145.523 160 140C160 134.477 155.523 130 150 130ZM146.213 140C146.213 137.909 147.909 136.213 150 136.213C152.091 136.213 153.787 137.909 153.787 140C153.787 142.091 152.091 143.787 150 143.787C147.909 143.787 146.213 142.091 146.213 140Z" fill="#A1A1AA"/>
  <path fill-rule="evenodd" clip-rule="evenodd" d="M133.333 123.333C133.333 120.571 135.571 118.333 138.333 118.333H161.667C164.429 118.333 166.667 120.571 166.667 123.333V156.667C166.667 159.429 164.429 161.667 161.667 161.667H138.333C135.571 161.667 133.333 159.429 133.333 156.667V123.333ZM138.333 123.333H161.667V145L155.833 139.167C154.923 138.256 153.41 138.256 152.5 139.167L150 141.667L144.167 135.833C143.256 134.923 141.744 134.923 140.833 135.833L138.333 138.333V123.333ZM138.333 144.167L142.5 140L150 147.5L155 142.5L161.667 149.167V156.667H138.333V144.167Z" fill="#A1A1AA"/>
</svg>
